<?xml version="1.0" standalone="no"?>
<!DOCTYPE svg PUBLIC "-//W3C//DTD SVG 20010904//EN"
 "http://www.w3.org/TR/2001/REC-SVG-20010904/DTD/svg10.dtd">
<svg version="1.0" xmlns="http://www.w3.org/2000/svg"
 width="1280.000000pt" height="966.000000pt" viewBox="0 0 1280.000000 966.000000"
 preserveAspectRatio="xMidYMid meet">

<g transform="translate(0.000000,966.000000) scale(0.100000,-0.100000)"
fill="#000000" stroke="none">
<path d="M1 8378 l0 -1283 20 70 c11 39 23 79 28 90 5 11 20 45 34 76 84 192
274 376 519 504 242 125 587 218 957 256 66 7 126 16 132 20 10 6 9 44 -1 167
-26 312 13 556 121 772 165 326 473 524 924 594 80 12 -75 14 -1322 15 l-1413
1 1 -1282z"/>
<path d="M3315 9653 c115 -15 350 -58 452 -83 140 -35 378 -114 476 -159 37
-17 70 -31 73 -31 3 0 67 -31 142 -68 755 -377 1367 -1038 1501 -1622 21 -93
20 50 37 -4160 6 -1400 5 -1530 -10 -1590 -34 -131 -117 -228 -240 -279 l-75
-31 -593 0 c-585 0 -594 0 -661 22 -124 40 -228 152 -262 279 -13 46 -15 392
-15 2419 0 1540 -4 2403 -10 2475 -24 249 -64 408 -145 570 -139 277 -338 418
-625 445 -52 5 -162 15 -245 24 -405 41 -859 63 -1067 51 l-138 -7 -2 -2987
-3 -2986 -34 -69 c-43 -89 -112 -158 -199 -199 l-67 -32 -655 0 -655 0 -57 27
c-58 27 -133 89 -170 141 -12 17 -32 55 -44 86 l-24 56 0 -972 0 -973 4822 0
c2652 0 4819 2 4817 4 -2 2 -56 6 -119 10 -676 38 -1284 244 -1737 587 -291
221 -535 511 -708 842 -110 211 -190 435 -252 702 -17 76 -18 206 -21 2895 -2
2122 0 2825 9 2858 14 52 77 125 133 155 l41 22 745 0 c745 0 745 0 785 -22
53 -28 99 -78 124 -133 20 -45 21 -53 21 -2472 0 -1656 3 -2460 11 -2530 44
-427 237 -756 552 -946 77 -47 219 -106 301 -126 167 -42 722 -92 1136 -102
l225 -5 0 2588 c0 1423 2 2811 5 3083 4 443 7 498 22 526 24 44 73 91 122 117
l41 22 770 0 770 0 46 -23 c55 -27 92 -64 118 -117 l20 -40 1 883 0 882 -4757
-1 c-2617 -1 -4744 -4 -4728 -6z"/>
<path d="M2820 9446 c-58 -7 -118 -16 -135 -20 -98 -23 -126 -30 -180 -48 -93
-32 -228 -103 -292 -154 -257 -206 -355 -504 -313 -960 l13 -144 306 -1 c168
0 315 -2 326 -4 11 -1 81 -6 155 -9 155 -7 707 -58 785 -72 180 -33 366 -135
499 -274 182 -191 277 -410 339 -785 l21 -130 3 -2420 c2 -1573 6 -2432 13
-2455 11 -40 58 -93 104 -118 28 -15 88 -17 561 -20 292 -2 553 0 581 3 62 7
120 43 154 93 l25 37 -1 1095 c-1 2985 -6 4340 -14 4461 -7 109 -15 150 -40
222 -94 266 -266 522 -525 781 -498 497 -1133 812 -1835 912 -154 21 -418 26
-550 10z"/>
<path d="M1595 7889 c-674 -84 -1079 -262 -1278 -562 -48 -72 -70 -125 -96
-228 l-21 -84 2 -2521 3 -2520 28 -42 c15 -23 46 -54 70 -69 l42 -28 605 0
c665 0 629 -3 694 62 60 59 56 -167 56 3048 0 2808 -1 2955 -17 2954 -10 -1
-49 -5 -88 -10z"/>
<path d="M7028 7859 c-17 -9 -18 -153 -18 -2788 0 -2467 2 -2788 15 -2862 68
-367 245 -755 475 -1044 335 -420 809 -710 1390 -849 162 -39 343 -70 500 -85
175 -17 566 -33 638 -26 530 52 818 357 881 935 9 81 9 386 0 394 -2 2 -148 6
-324 9 -176 3 -331 8 -345 11 -14 2 -68 7 -120 10 -281 19 -598 63 -717 101
-57 19 -110 38 -116 43 -7 5 -26 14 -44 20 -81 27 -260 149 -361 246 -59 56
-160 182 -209 261 -95 150 -172 383 -203 610 -8 56 -13 813 -16 2539 -3 1749
-8 2464 -16 2473 -8 10 -144 13 -702 13 -451 -1 -697 -4 -708 -11z"/>
<path d="M11118 7858 c-14 -12 -17 -77 -23 -583 -9 -823 -9 -5389 0 -5457 l7
-58 47 0 c112 0 397 43 566 86 468 117 773 330 865 605 20 58 20 93 20 2728 0
2630 0 2670 -19 2681 -31 16 -1442 14 -1463 -2z"/>
<path d="M12785 2408 c-23 -104 -114 -249 -229 -363 -265 -264 -707 -428
-1307 -486 l-127 -12 -5 -241 c-5 -277 -18 -366 -79 -551 -45 -135 -85 -214
-167 -329 -149 -209 -401 -358 -693 -411 -62 -11 128 -13 1275 -14 l1347 -1 0
1220 c0 671 -2 1220 -4 1220 -3 0 -8 -15 -11 -32z"/>
</g>
</svg>
